<svg xmlns="http://www.w3.org/2000/svg" viewBox="0 0 100 100" width="100" height="100">
  <circle cx="50" cy="50" r="45" fill="#e84b65" />
  <circle cx="50" cy="50" r="40" fill="#ffffff" />
  <circle cx="50" cy="50" r="35" fill="#bc002d" />
  <!-- Elegant sakura path in center -->
  <path d="M 50 25 C 53 38 67 38 67 48 C 67 52 64 55 60 55 C 55 55 54 48 50 48 C 46 48 45 55 40 55 C 36 55 33 52 33 48 C 33 38 47 38 50 25 Z" fill="#ffffff" opacity="0.95" />
  <path d="M 50 75 C 53 62 67 62 67 52 C 67 48 64 45 60 45 C 55 45 54 52 50 52 C 46 52 45 45 40 45 C 36 45 33 48 33 52 C 33 62 47 62 50 75 Z" fill="#ffffff" opacity="0.95" />
  <path d="M 25 50 C 38 53 38 67 48 67 C 52 67 55 64 55 60 C 55 55 48 54 48 50 C 48 46 55 45 55 40 C 55 36 52 33 48 33 C 38 33 38 47 25 50 Z" fill="#ffffff" opacity="0.95" />
  <path d="M 75 50 C 62 53 62 67 52 67 C 48 67 45 64 45 60 C 45 55 52 54 52 50 C 52 46 45 45 45 40 C 45 36 48 33 52 33 C 62 33 62 47 75 50 Z" fill="#ffffff" opacity="0.95" />
</svg>
