<svg xmlns="http://www.w3.org/2000/svg" viewBox="0 0 64 64" width="64" height="64">
  <!-- Sun -->
  <circle cx="40" cy="24" r="12" fill="#ffb300" />
  <path d="M 40 6 L 40 10 M 40 38 L 40 42 M 22 24 L 26 24 M 54 24 L 58 24 M 27.3 11.3 L 30.1 14.1 M 49.9 33.9 L 52.7 36.7 M 27.3 36.7 L 30.1 33.9 M 49.9 11.3 L 52.7 14.1" stroke="#ffb300" stroke-width="3" stroke-linecap="round" />
  <!-- Cloud -->
  <path d="M 46 44 A 10 10 0 0 0 46 24 A 12 12 0 0 0 24 24 A 10 10 0 0 0 16 38 A 8 8 0 0 0 20 54 L 46 54 A 8 8 0 0 0 54 46 A 8 8 0 0 0 46 44 Z" fill="#ffffff" stroke="#cbd5e1" stroke-width="2" stroke-linejoin="round" />
</svg>
